<svg width="134" height="28" viewBox="0 0 134 28" fill="none" xmlns="http://www.w3.org/2000/svg">
<g clip-path="url(#clip0)">
<path d="M98.8265 4.52671C99.4369 4.52671 99.9709 4.29783 100.429 3.8655C100.861 3.43316 101.064 2.8991 101.064 2.28875C101.064 1.67839 100.836 1.14433 100.403 0.711998C99.9709 0.279664 99.4623 0.0507812 98.8774 0.0507812C98.2416 0.0507812 97.733 0.254233 97.2752 0.686567C96.8174 1.1189 96.5886 1.65296 96.5886 2.28875C96.5886 2.8991 96.8174 3.43316 97.2498 3.8655C97.6821 4.32326 98.1907 4.52671 98.8265 4.52671Z" fill="#E20074"/>
<path d="M43.6403 20.243L37.8165 0.279297H29.9328V1.5763H30.6957C31.3061 1.5763 31.7639 1.62716 32.0945 1.72889C32.6285 1.90691 32.9846 2.31381 33.1372 2.9496C33.2135 3.25477 33.2643 3.86513 33.2643 4.80609V20.5481C33.2643 22.0232 33.2135 23.0659 33.1372 23.6762C33.01 24.49 32.7048 25.1004 32.2725 25.4818C31.7893 25.9142 31.2552 26.1176 30.6194 26.1176H29.9582V27.4401H38.376V26.1176H37.842C36.367 26.1176 35.426 25.4055 35.0445 23.9814C34.9174 23.4728 34.8411 22.3283 34.8411 20.5481V2.74615L42.0127 27.4401H43.2589L50.4305 2.74615V22.1249C50.4305 23.0404 50.3797 23.7779 50.3034 24.3629C50.2525 24.8461 50.0745 25.2275 49.7947 25.5073C49.3624 25.9142 48.6503 26.1176 47.6331 26.1176H47.3025V27.4401H57.5005V26.1176H56.941C55.5422 26.1176 54.6776 25.7107 54.3978 24.8715C54.2452 24.4137 54.169 23.4982 54.169 22.1249V5.59446C54.169 4.67893 54.2198 3.91599 54.2961 3.33107C54.347 2.84787 54.525 2.49183 54.8047 2.21209C55.2116 1.77975 55.9237 1.5763 56.941 1.5763H57.5005V0.279297H49.5659L43.6403 20.243Z" fill="#E20074"/>
<path d="M66.198 8.1123C63.6549 8.1123 61.5949 9.10413 60.0182 11.1132C58.6449 12.868 57.9583 15.1822 57.9583 18.056C57.9583 20.9297 58.6449 23.244 60.0182 24.9988C61.5949 27.0079 63.604 27.9997 66.0963 27.9997C68.7157 27.9997 70.8266 27.0079 72.3779 24.9988C73.7512 23.244 74.4378 20.9043 74.4378 18.0051C74.4378 15.1568 73.7512 12.8426 72.3779 11.1132C70.7757 9.10413 68.7157 8.1123 66.198 8.1123ZM66.198 26.7027C64.7484 26.7027 63.6803 26.016 63.0191 24.6682C62.2816 23.1168 61.9001 20.8534 61.9001 17.8525C61.9001 14.2413 62.5105 11.7999 63.7058 10.5537C64.4433 9.79078 65.2571 9.40931 66.198 9.40931C66.783 9.40931 67.3425 9.5619 67.8511 9.86707C68.5886 10.3248 69.1481 10.9861 69.5296 11.8507C70.1653 13.2495 70.4705 15.284 70.4705 17.9543C70.4705 23.7781 69.0464 26.7027 66.198 26.7027Z" fill="#E20074"/>
<path d="M86.06 8.29064C84.7375 8.29064 83.5677 8.69755 82.5504 9.51135C82.0164 9.94369 81.5586 10.554 81.228 11.3424V0L75.4296 0.279746V1.52589H75.7348C76.4977 1.52589 77.0318 1.70391 77.3116 2.03451C77.6422 2.39055 77.8202 3.30609 77.8202 4.78111V23.4223C77.8202 25.1008 77.7693 26.1944 77.6422 26.7539C77.6167 26.8302 77.5659 27.059 77.4133 27.4405H78.7611C79.0663 26.9573 79.3461 26.525 79.6258 26.1435C79.9056 25.7112 80.1853 25.5077 80.4142 25.5077C80.6176 25.5077 80.8465 25.6094 81.1008 25.8383C81.7875 26.3978 82.2453 26.7539 82.4487 26.881C83.466 27.5422 84.5595 27.8474 85.7802 27.8474C88.0182 27.8474 89.7984 26.9319 91.1717 25.0754C92.6213 23.0917 93.3588 20.6503 93.3588 17.7257C93.3588 14.6485 92.545 12.2071 90.9174 10.376C89.6204 9.00272 88.0182 8.29064 86.06 8.29064ZM85.3479 26.4233C84.6358 26.4233 84.0255 26.2452 83.466 25.8638C82.7793 25.406 82.2707 24.7956 81.9146 24.0327C81.228 22.5831 80.8974 20.5486 80.8974 17.8783C80.8974 14.4451 81.6095 12.0799 83.0336 10.7575C83.7966 10.0708 84.6358 9.71481 85.5259 9.71481C86.7975 9.71481 87.7384 10.376 88.3742 11.6985C89.0609 13.1226 89.3915 15.1571 89.3915 17.7766C89.3661 23.5495 88.0436 26.4233 85.3479 26.4233Z" fill="#E20074"/>
<path d="M127.106 24.7445C126.165 25.8634 124.995 26.4229 123.597 26.4229C121.791 26.4229 120.52 25.5328 119.782 23.7526C119.248 22.4811 118.968 20.5483 118.968 17.9288H130.107C130.031 15.6909 129.599 13.8344 128.861 12.3339C127.462 9.51103 125.352 8.1123 122.554 8.1123C120.672 8.1123 119.07 8.84982 117.722 10.3503C116.018 12.2576 115.179 14.7753 115.179 17.9288C115.179 21.3621 116.018 23.9815 117.722 25.8126C119.095 27.2622 120.85 27.9997 122.986 27.9997C125.886 27.9997 128.2 26.2958 129.904 22.8371L128.683 22.2013C128.149 23.2949 127.615 24.1341 127.106 24.7445ZM119.401 13.046C120.062 10.7063 121.155 9.53646 122.732 9.53646C124.131 9.53646 125.148 10.4774 125.784 12.3848C126.14 13.4529 126.318 14.8262 126.318 16.4792H118.968C119.019 15.1314 119.146 13.987 119.401 13.046Z" fill="#E20074"/>
<path d="M111.669 25.6857C111.339 25.3043 111.161 24.3633 111.161 22.8883V0L105.184 0.279746V1.52589H105.642C106.405 1.52589 106.939 1.70391 107.219 2.03451C107.55 2.41599 107.728 3.33152 107.728 4.80654V22.8883C107.728 24.3633 107.575 25.3043 107.219 25.6857C106.939 26.0163 106.405 26.1944 105.642 26.1944H104.981V27.4405H113.882V26.1944H113.221C112.483 26.1689 111.975 26.0163 111.669 25.6857Z" fill="#E20074"/>
<path d="M101.344 25.6859C101.014 25.3044 100.836 24.3889 100.836 22.8884V8.41797L94.8592 8.69771V9.96929H95.317C96.0799 9.96929 96.614 10.1219 96.8937 10.4525C97.2243 10.834 97.4024 11.7495 97.4024 13.2245V22.8884C97.4024 24.3635 97.2243 25.3044 96.8937 25.6859C96.614 26.0165 96.0799 26.1945 95.317 26.1945H94.6558V27.4407H103.557V26.1945H102.896C102.158 26.1691 101.624 26.0165 101.344 25.6859Z" fill="#E20074"/>
<path d="M16.7593 12.7666V18.2598H22.2525V12.7666H19.4042H16.7593Z" fill="#E20074"/>
<path d="M0.279746 0.279297L0 9.86694L1.44959 10.1213C1.72934 7.29837 2.46685 5.21299 3.66213 3.8397C4.9337 2.41554 6.68847 1.65259 8.95186 1.60173V21.6163C8.95186 23.371 8.69755 24.49 8.18892 25.0241C7.75659 25.4818 7.01907 25.7362 5.97639 25.8379C5.67121 25.8633 5.13715 25.8633 4.39964 25.8633V27.3892H17.802V25.8633C17.0645 25.8633 16.5304 25.8379 16.2253 25.8379C15.1826 25.7362 14.4451 25.4564 14.0127 25.0241C13.5041 24.49 13.2498 23.371 13.2498 21.6163V1.5763C15.5132 1.65259 17.2679 2.39011 18.5395 3.81426C19.7602 5.18756 20.4977 7.27294 20.752 10.0958L22.2016 9.84151L21.9982 0.279297H0.279746Z" fill="#E20074"/>
<path d="M5.49319 12.7666H2.77203H0V18.2598H5.49319V12.7666Z" fill="#E20074"/>
<path d="M130.692 10.2994V8.39205H130.107V8.1123H131.633V8.39205H131.023V10.2994H130.692ZM131.887 10.2994V8.1123H132.32L132.854 9.86707L133.388 8.1123H133.82V10.2994H133.515V8.57007L133.032 10.2994H132.701L132.193 8.62093V10.2994H131.887Z" fill="#E20074"/>
</g>
<defs>
<clipPath id="clip0">
<path d="M0 0H133.795V28H0V0Z" fill="white"/>
</clipPath>
</defs>
</svg>
